<?xml version="1.0" encoding="iso-8859-1"?>
<!-- Generator: Adobe Illustrator 19.0.0, SVG Export Plug-In . SVG Version: 6.00 Build 0)  -->
<svg version="1.1" id="Capa_1" xmlns="http://www.w3.org/2000/svg" xmlns:xlink="http://www.w3.org/1999/xlink" x="0px" y="0px"
	 viewBox="0 0 511.999 511.999" style="enable-background:new 0 0 511.999 511.999;" xml:space="preserve">
<g>
	<g>
		<path d="M467,75.993h-45v-15c0-24.813-20.187-45-45-45H45c-24.813,0-45,20.187-45,45v240c0,24.813,20.187,45,45,45h45v75
			c0,13.384,16.222,19.992,25.606,10.606l25.607-25.606h169.574l85.606,85.606c9.389,9.393,25.606,2.8,25.606-10.606v-75h45
			c24.813,0,45-20.187,45-45v-240C512,96.18,491.813,75.993,467,75.993z M120,384.78v-53.787c0-8.284-6.716-15-15-15H45
			c-8.271,0-15-6.729-15-15v-240c0-8.271,6.729-15,15-15h332c8.271,0,15,6.729,15,15v240c0,8.271-6.729,15-15,15H195
			c-3.979,0-7.793,1.581-10.606,4.394L120,384.78z M482,360.993c0,8.271-6.729,15-15,15h-60c-8.284,0-15,6.716-15,15v53.787
			l-64.394-64.393c-2.813-2.813-6.628-4.394-10.606-4.394H171.213l30-30H377c24.813,0,45-20.187,45-45v-195h45
			c8.271,0,15,6.729,15,15V360.993z"/>
	</g>
</g>
<g>
	<g>
		<path d="M287,105.993H75c-8.284,0-15,6.716-15,15s6.716,15,15,15h212c8.284,0,15-6.716,15-15S295.284,105.993,287,105.993z"/>
	</g>
</g>
<g>
	<g>
		<path d="M347,165.993H75c-8.284,0-15,6.716-15,15s6.716,15,15,15h272c8.284,0,15-6.716,15-15S355.284,165.993,347,165.993z"/>
	</g>
</g>
<g>
	<g>
		<path d="M227,225.993H75c-8.284,0-15,6.716-15,15s6.716,15,15,15h152c8.284,0,15-6.716,15-15S235.284,225.993,227,225.993z"/>
	</g>
</g>
<g>
</g>
<g>
</g>
<g>
</g>
<g>
</g>
<g>
</g>
<g>
</g>
<g>
</g>
<g>
</g>
<g>
</g>
<g>
</g>
<g>
</g>
<g>
</g>
<g>
</g>
<g>
</g>
<g>
</g>
</svg>
